PathFileType	4	(x/y/z)	S05_BK_Cal_T01
DataRate	CameraRate	NumFrames	NumMarkers	Units	OrigDataRate	OrigDataStartFrame	OrigNumFrames
240	240	11	50	mm	240	1	2400
Frame#	Time	Sternum			R.Acromium			L.Acromium			Top.Head			R.ASIS			L.ASIS			R.PSIS			L.PSIS			R.Great.Tro			L.Great.Tro			R.Iliac.Crest			L.Iliac.Crest			V.Sacral			R.Thigh.Upper.Post			R.Thigh.Lower.Ant			R.Thigh.Lower.Post			R.Thigh.Upper.Ant			R.Knee.Lat			R.Knee.Med			R.Shank.Upper.Post			R.Shank.Lower.Ant			R.Shank.Lower.Post			R.Shank.Upper.Ant			R.Ankle.Lat			R.Ankle.Med			R.Heel.Upper			R.Heel.Med			R.Heel.Lat			R.Toe.Lat			R.Toe.Med			R.Toe.Tip			L.Thigh.Upper.Post			L.Thigh.Lower.Ant			L.Thigh.Lower.Post			L.Thigh.Upper.Ant			L.Knee.Lat			L.Shank.Upper.Post			L.Shank.Lower.Ant			L.Shank.Lower.Post			L.Shank.Upper.Ant			L.Ankle.Lat			L.Ankle.Med			L.Heel.Upper			L.Heel.Med			L.Heel.Lat			L.Toe.Lat			L.Toe.Med			L.Toe.Tip			Cervical.Spine			Back			
		X1	Y1	Z1	X2	Y2	Z2	X3	Y3	Z3	X4	Y4	Z4	X5	Y5	Z5	X6	Y6	Z6	X7	Y7	Z7	X8	Y8	Z8	X9	Y9	Z9	X10	Y10	Z10	X11	Y11	Z11	X12	Y12	Z12	X13	Y13	Z13	X14	Y14	Z14	X15	Y15	Z15	X16	Y16	Z16	X17	Y17	Z17	X18	Y18	Z18	X19	Y19	Z19	X20	Y20	Z20	X21	Y21	Z21	X22	Y22	Z22	X23	Y23	Z23	X24	Y24	Z24	X25	Y25	Z25	X26	Y26	Z26	X27	Y27	Z27	X28	Y28	Z28	X29	Y29	Z29	X30	Y30	Z30	X31	Y31	Z31	X32	Y32	Z32	X33	Y33	Z33	X34	Y34	Z34	X35	Y35	Z35	X36	Y36	Z36	X37	Y37	Z37	X38	Y38	Z38	X39	Y39	Z39	X40	Y40	Z40	X41	Y41	Z41	X42	Y42	Z42	X43	Y43	Z43	X44	Y44	Z44	X45	Y45	Z45	X46	Y46	Z46	X47	Y47	Z47	X48	Y48	Z48	X49	Y49	Z49	X50	Y50	Z50	

1	0	504.9	1243.5	328.76	417.72	1497.5	487.1	393.77	1508.4	149.54	419.85	1819.4	323.85	428.61	989.7	457.28	439.06	990.91	207.59	231.08	1013.9	363.14	235.96	1014.7	270.75	347.78	911.92	518.42	356.37	914.58	127.19	348.79	1077.4	491.32	359.39	1072.6	159.13	220.77	975.8	329.15	443.49	704.42	534.01	510.67	643.53	486.86	451.34	615.09	518.57	498.3	731.52	501.55	463.2	519.95	506.78	466.62	495.84	378.87	346.83	298.86	516.47	394.69	222.23	514.77	331.18	224.03	505.59	411.84	298.28	524.62	354.78	123.19	506.86	360.43	143.19	413.31	273.47	74.89	455.87	282.72	40.899	429.4	283.52	48.487	493.76	451.85	36.584	534.5	478.69	40.789	412.33	545.94	57.414	453.33	410.5	680.87	114.52	505.04	626.58	134.37	441.44	590.79	125.71	481.71	713.92	124.03	466.08	505.61	126.7	366.2	327.99	117.92	420.3	257.66	119.68	349.59	257.48	131.86	432.07	327.02	110.12	345.42	117.68	134.8	380.72	125.22	222.71	279.22	67.961	185.82	291.23	43.241	217.86	281.36	40.655	156.97	462.11	38.971	98.08	488	50.82	216.76	551.21	60.248	159.77	356.14	1551.2	325.65	244.43	1277.3	327.19
2	0.0041667	504.87	1243.4	328.7	417.71	1497.5	487.14	394.77	1508.4	149.39	419.8	1819.4	323.85	428.63	989.64	457.23	439.06	990.91	207.58	231.08	1014	363.18	235.97	1014.7	270.76	347.8	911.97	518.44	356.36	914.6	127.2	348.87	1077.5	491.34	359.33	1072.7	159.12	220.8	975.83	329.16	443.51	704.44	534.03	510.67	643.56	486.87	451.37	615.12	518.59	498.31	731.55	501.57	463.18	519.99	506.78	466.62	495.84	378.86	346.83	298.92	516.56	394.74	222.27	514.77	331.19	224.05	505.65	411.89	298.33	524.66	354.81	123.23	506.88	360.48	143.22	413.29	273.45	74.918	455.9	282.63	40.93	429.41	283.51	48.516	493.8	451.88	36.63	534.52	478.71	40.803	412.36	545.94	57.42	453.35	410.5	680.9	114.52	504.98	626.53	134.4	441.43	590.82	125.72	481.69	713.91	124.02	466.08	505.64	126.7	366.22	328.04	117.92	420.3	257.65	119.71	349.6	257.49	131.89	432.1	327.04	110.13	345.26	117.83	134.61	380.83	125.27	222.69	279.14	68.009	185.85	291.21	43.279	217.88	281.35	40.671	157	462.14	38.993	98.088	488.04	50.863	216.75	551.2	60.244	159.76	356.13	1551.3	325.71	244.45	1277.3	327.22
3	0.0083333	504.85	1243.3	328.63	417.7	1497.6	487.19	395.74	1508.3	149.24	419.74	1819.4	323.86	428.64	989.58	457.17	439.06	990.9	207.57	231.07	1014	363.22	235.98	1014.8	270.78	347.81	912.01	518.47	356.35	914.61	127.2	348.96	1077.5	491.35	359.26	1072.8	159.11	220.83	975.85	329.16	443.53	704.46	534.04	510.67	643.58	486.88	451.39	615.14	518.61	498.31	731.58	501.6	463.16	520.02	506.77	466.62	495.83	378.84	346.84	298.97	516.65	394.8	222.3	514.77	331.19	224.08	505.7	411.95	298.38	524.7	354.84	123.28	506.9	360.53	143.25	413.27	273.43	74.946	455.92	282.53	40.961	429.42	283.5	48.545	493.83	451.9	36.674	534.53	478.73	40.817	412.4	545.94	57.426	453.36	410.49	680.92	114.52	504.93	626.47	134.43	441.42	590.85	125.72	481.67	713.9	124.01	466.08	505.66	126.7	366.24	328.09	117.91	420.29	257.65	119.74	349.62	257.51	131.91	432.14	327.07	110.15	345.11	117.97	134.42	380.94	125.31	222.66	279.07	68.055	185.88	291.18	43.317	217.91	281.34	40.685	157.02	462.16	39.015	98.097	488.07	50.905	216.74	551.2	60.24	159.76	356.12	1551.3	325.77	244.47	1277.4	327.25
4	0.0125	504.83	1243.2	328.58	417.69	1497.6	487.23	396.65	1508.2	149.11	419.69	1819.4	323.87	428.66	989.52	457.12	439.06	990.9	207.56	231.06	1014	363.26	235.99	1014.8	270.79	347.83	912.06	518.49	356.34	914.63	127.2	349.04	1077.5	491.36	359.19	1072.8	159.11	220.85	975.88	329.16	443.54	704.49	534.05	510.67	643.61	486.88	451.41	615.16	518.62	498.32	731.6	501.62	463.14	520.05	506.77	466.62	495.82	378.82	346.84	299.03	516.73	394.84	222.34	514.77	331.2	224.1	505.76	412	298.43	524.74	354.87	123.32	506.92	360.59	143.27	413.25	273.42	74.973	455.95	282.45	40.99	429.42	283.49	48.573	493.86	451.93	36.717	534.55	478.76	40.831	412.44	545.94	57.432	453.38	410.48	680.94	114.52	504.87	626.43	134.45	441.41	590.87	125.72	481.65	713.89	124	466.08	505.68	126.7	366.26	328.14	117.91	420.28	257.65	119.77	349.64	257.53	131.93	432.17	327.1	110.16	344.95	118.1	134.25	381.04	125.36	222.64	279	68.098	185.91	291.16	43.353	217.93	281.34	40.7	157.05	462.18	39.036	98.104	488.11	50.946	216.73	551.19	60.237	159.76	356.12	1551.3	325.83	244.49	1277.5	327.28
5	0.016667	504.8	1243.2	328.52	417.68	1497.7	487.28	397.49	1508.2	148.98	419.63	1819.4	323.87	428.68	989.47	457.07	439.06	990.9	207.55	231.06	1014	363.3	236	1014.8	270.8	347.84	912.11	518.51	356.33	914.65	127.2	349.12	1077.6	491.38	359.13	1072.9	159.1	220.88	975.91	329.17	443.56	704.51	534.06	510.67	643.63	486.89	451.43	615.18	518.64	498.32	731.63	501.65	463.12	520.08	506.76	466.62	495.81	378.81	346.84	299.08	516.81	394.88	222.37	514.77	331.2	224.12	505.81	412.04	298.48	524.78	354.9	123.36	506.93	360.63	143.3	413.23	273.4	74.998	455.97	282.36	41.018	429.43	283.48	48.598	493.9	451.95	36.755	534.56	478.78	40.844	412.47	545.94	57.437	453.4	410.47	680.97	114.52	504.82	626.38	134.48	441.4	590.9	125.72	481.62	713.88	123.99	466.08	505.7	126.69	366.28	328.18	117.9	420.27	257.64	119.79	349.65	257.54	131.95	432.19	327.13	110.17	344.81	118.21	134.1	381.15	125.4	222.62	278.93	68.139	185.94	291.14	43.387	217.96	281.33	40.713	157.07	462.2	39.057	98.111	488.14	50.984	216.72	551.19	60.234	159.76	356.1	1551.4	325.89	244.5	1277.5	327.31
6	0.020833	504.78	1243.1	328.48	417.67	1497.7	487.32	398.24	1508.1	148.87	419.57	1819.4	323.88	428.69	989.43	457.03	439.06	990.89	207.54	231.05	1014	363.34	236.01	1014.8	270.82	347.85	912.15	518.54	356.32	914.67	127.2	349.19	1077.6	491.39	359.08	1073	159.1	220.9	975.93	329.17	443.57	704.53	534.07	510.67	643.65	486.9	451.45	615.2	518.65	498.32	731.65	501.67	463.1	520.11	506.75	466.61	495.81	378.79	346.84	299.12	516.88	394.92	222.4	514.77	331.21	224.14	505.85	412.08	298.52	524.81	354.92	123.4	506.95	360.68	143.32	413.21	273.38	75.022	455.99	282.28	41.043	429.44	283.47	48.622	493.93	451.97	36.791	534.57	478.79	40.857	412.5	545.94	57.442	453.41	410.45	680.99	114.52	504.76	626.34	134.5	441.38	590.92	125.72	481.6	713.87	123.98	466.07	505.72	126.69	366.29	328.22	117.89	420.27	257.64	119.81	349.66	257.55	131.96	432.22	327.15	110.19	344.67	118.31	133.96	381.25	125.43	222.59	278.87	68.175	185.96	291.13	43.418	217.98	281.32	40.725	157.09	462.22	39.076	98.117	488.17	51.021	216.72	551.18	60.232	159.76	356.09	1551.4	325.94	244.52	1277.6	327.34
7	0.025	504.76	1243	328.43	417.66	1497.8	487.36	398.89	1508.1	148.78	419.52	1819.4	323.89	428.71	989.39	456.99	439.06	990.89	207.53	231.04	1014.1	363.37	236.01	1014.9	270.83	347.86	912.19	518.56	356.3	914.69	127.2	349.26	1077.6	491.41	359.02	1073	159.09	220.92	975.96	329.18	443.58	704.55	534.08	510.67	643.67	486.9	451.46	615.22	518.66	498.32	731.67	501.69	463.08	520.14	506.75	466.61	495.81	378.78	346.84	299.17	516.95	394.95	222.43	514.77	331.21	224.16	505.9	412.12	298.56	524.84	354.94	123.43	506.96	360.72	143.34	413.19	273.37	75.044	456.01	282.21	41.066	429.44	283.46	48.642	493.95	451.99	36.822	534.58	478.81	40.869	412.53	545.94	57.447	453.43	410.44	681.01	114.52	504.71	626.3	134.52	441.36	590.95	125.72	481.57	713.86	123.96	466.06	505.74	126.69	366.3	328.26	117.89	420.26	257.64	119.84	349.67	257.56	131.98	432.24	327.18	110.2	344.54	118.39	133.85	381.35	125.46	222.57	278.82	68.208	185.99	291.11	43.447	218	281.32	40.737	157.11	462.24	39.094	98.123	488.2	51.054	216.71	551.18	60.231	159.76	356.08	1551.4	325.99	244.52	1277.7	327.36
8	0.029167	504.74	1243	328.4	417.64	1497.8	487.4	399.46	1508	148.69	419.46	1819.4	323.9	428.72	989.36	456.96	439.05	990.89	207.53	231.03	1014.1	363.4	236.02	1014.9	270.84	347.87	912.23	518.58	356.29	914.7	127.19	349.31	1077.6	491.42	358.98	1073.1	159.09	220.94	975.98	329.19	443.59	704.57	534.09	510.66	643.68	486.91	451.47	615.23	518.68	498.32	731.69	501.7	463.07	520.16	506.74	466.6	495.8	378.76	346.83	299.2	517	394.97	222.46	514.77	331.21	224.18	505.93	412.15	298.6	524.87	354.96	123.46	506.98	360.75	143.36	413.18	273.36	75.063	456.03	282.15	41.086	429.45	283.46	48.661	493.98	452.01	36.848	534.59	478.82	40.88	412.55	545.94	57.451	453.44	410.42	681.03	114.51	504.66	626.26	134.54	441.35	590.97	125.72	481.55	713.86	123.95	466.05	505.76	126.69	366.31	328.3	117.88	420.25	257.64	119.85	349.68	257.57	131.99	432.25	327.2	110.21	344.43	118.45	133.77	381.45	125.48	222.54	278.77	68.236	186.01	291.1	43.472	218.01	281.31	40.746	157.13	462.25	39.11	98.127	488.23	51.084	216.7	551.18	60.231	159.76	356.06	1551.5	326.04	244.53	1277.7	327.39
9	0.033333	504.72	1243	328.37	417.63	1497.8	487.44	399.93	1508	148.63	419.41	1819.4	323.91	428.72	989.33	456.93	439.05	990.89	207.52	231.03	1014.1	363.43	236.02	1014.9	270.86	347.88	912.26	518.59	356.27	914.72	127.19	349.36	1077.7	491.43	358.93	1073.1	159.09	220.95	976	329.19	443.59	704.59	534.09	510.65	643.7	486.91	451.47	615.25	518.68	498.31	731.7	501.72	463.05	520.18	506.74	466.6	495.8	378.75	346.83	299.24	517.05	394.99	222.48	514.77	331.21	224.2	505.96	412.17	298.63	524.89	354.98	123.48	506.99	360.78	143.37	413.16	273.35	75.079	456.04	282.1	41.103	429.45	283.45	48.676	494	452.02	36.871	534.59	478.83	40.889	412.57	545.94	57.456	453.45	410.4	681.04	114.51	504.62	626.24	134.55	441.33	590.99	125.72	481.52	713.86	123.94	466.04	505.78	126.68	366.31	328.32	117.87	420.24	257.64	119.87	349.68	257.58	132	432.26	327.22	110.21	344.33	118.48	133.72	381.53	125.5	222.52	278.73	68.259	186.03	291.09	43.494	218.03	281.31	40.755	157.14	462.26	39.125	98.13	488.25	51.111	216.69	551.17	60.232	159.76	356.05	1551.5	326.08	244.53	1277.8	327.41
10	0.0375	504.7	1242.9	328.34	417.61	1497.9	487.47	400.32	1508	148.57	419.35	1819.4	323.92	428.73	989.31	456.91	439.04	990.89	207.52	231.02	1014.1	363.46	236.02	1014.9	270.87	347.88	912.29	518.61	356.26	914.73	127.19	349.4	1077.7	491.45	358.89	1073.2	159.1	220.96	976.02	329.2	443.59	704.61	534.1	510.65	643.71	486.91	451.48	615.26	518.69	498.31	731.72	501.73	463.03	520.2	506.73	466.59	495.8	378.74	346.82	299.26	517.09	395	222.5	514.77	331.2	224.21	505.98	412.19	298.66	524.91	354.99	123.51	507	360.81	143.39	413.15	273.34	75.093	456.05	282.05	41.116	429.45	283.45	48.69	494.02	452.04	36.89	534.6	478.84	40.898	412.59	545.94	57.46	453.46	410.38	681.06	114.51	504.58	626.21	134.56	441.31	591.01	125.72	481.5	713.86	123.93	466.03	505.79	126.68	366.31	328.35	117.86	420.23	257.64	119.88	349.69	257.59	132.01	432.27	327.23	110.22	344.25	118.5	133.7	381.61	125.51	222.49	278.69	68.278	186.04	291.08	43.512	218.04	281.3	40.762	157.15	462.27	39.138	98.133	488.26	51.134	216.68	551.17	60.234	159.75	356.03	1551.5	326.13	244.53	1277.8	327.44
11	0.041667	504.68	1242.9	328.32	417.6	1497.9	487.5	400.62	1508	148.53	419.3	1819.4	323.94	428.73	989.3	456.89	439.03	990.89	207.51	231.01	1014.1	363.48	236.02	1014.9	270.88	347.89	912.31	518.62	356.24	914.75	127.19	349.44	1077.7	491.46	358.86	1073.2	159.1	220.97	976.03	329.21	443.59	704.62	534.11	510.64	643.72	486.91	451.47	615.27	518.7	498.3	731.73	501.74	463.01	520.22	506.73	466.58	495.8	378.73	346.81	299.29	517.12	395	222.52	514.77	331.2	224.22	506	412.2	298.68	524.92	355	123.52	507	360.83	143.4	413.14	273.33	75.104	456.07	282.01	41.127	429.45	283.44	48.702	494.03	452.05	36.906	534.6	478.85	40.906	412.6	545.94	57.465	453.46	410.36	681.07	114.51	504.54	626.19	134.57	441.28	591.02	125.72	481.47	713.86	123.92	466.01	505.8	126.68	366.31	328.37	117.86	420.22	257.64	119.89	349.69	257.6	132.02	432.28	327.25	110.23	344.2	118.5	133.71	381.69	125.52	222.47	278.67	68.294	186.06	291.07	43.528	218.05	281.3	40.767	157.16	462.28	39.149	98.135	488.28	51.155	216.67	551.17	60.236	159.75	356.01	1551.5	326.16	244.53	1277.8	327.46
